<svg width="19" height="19" viewBox="0 0 19 19" fill="none" xmlns="http://www.w3.org/2000/svg">
<path d="M0.470002 6.53865C-0.14354 4.08435 1.13667 2.20531 1.97 1.53865C2.46997 1.0386 3.96998 0.538742 4.46997 1.5387C5.1771 2.9529 5.46997 4.0387 6.46996 6.03865C6.96995 7.0386 5.46996 8.03865 4.96996 8.53865C6.56996 11.7386 10.3033 13.5386 11.97 14.0386C13.97 11.5387 13.97 12.0387 14.47 12.0387C14.97 12.0387 18.07 13.6386 18.47 14.0386C18.87 14.4386 18.6366 15.2053 18.47 15.5386C18.1366 16.372 16.87 18.0386 14.47 18.0386C11.47 18.0386 8.96996 16.5386 7.46996 15.5386C5.96996 14.5386 1.46996 10.5387 0.470002 6.53865Z" fill="#E53E49"/>
</svg>
