<svg width="23" height="23" viewBox="0 0 23 23" fill="none" xmlns="http://www.w3.org/2000/svg">
<path fill-rule="evenodd" clip-rule="evenodd" d="M11.5 23C17.8513 23 23 17.8513 23 11.5C23 5.14873 17.8513 0 11.5 0C5.14873 0 0 5.14873 0 11.5C0 17.8513 5.14873 23 11.5 23ZM12.25 3C12.25 2.58579 11.9142 2.25 11.5 2.25C11.0858 2.25 10.75 2.58579 10.75 3V11.5C10.75 11.7668 10.8917 12.0134 11.1221 12.1478L17.1221 15.6478C17.4799 15.8565 17.9391 15.7357 18.1478 15.3779C18.3565 15.0201 18.2357 14.5609 17.8779 14.3522L12.25 11.0692V3Z" fill="#E53E49"/>
</svg>
