<svg width="17" height="26" viewBox="0 0 17 26" fill="none" xmlns="http://www.w3.org/2000/svg">
<path fill-rule="evenodd" clip-rule="evenodd" d="M8.76819 25.541C11.3322 21.1551 17 11.4599 17 7.47639C17 3.3473 13.1944 0 8.5 0C3.80558 0 0 3.3473 0 7.47639C0 11.208 4.97342 19.8603 7.71019 24.6214C8.00175 25.1287 8.26793 25.5917 8.5 26C8.58497 25.8545 8.67451 25.7013 8.76819 25.541ZM8.5 13C10.9853 13 13 10.9853 13 8.5C13 6.01472 10.9853 4 8.5 4C6.01472 4 4 6.01472 4 8.5C4 10.9853 6.01472 13 8.5 13Z" fill="#E53E49"/>
</svg>
