<svg width="568" height="57" viewBox="0 0 568 57" fill="none" xmlns="http://www.w3.org/2000/svg">
  <path d="M560.242 51.4465C553.347 55.1488 545.805 57 537.616 57C533.799 57 530.351 56.3829 527.272 55.1488C524.256 53.8633 521.885 51.9865 520.161 49.5183C518.437 47.0501 517.575 44.0934 517.575 40.6482C517.575 38.8999 517.729 37.3572 518.037 36.0203L521.639 18.7429C522.501 14.5778 524.256 11.1069 526.903 8.33018C529.55 5.50203 532.783 3.41949 536.6 2.08254C540.417 0.694182 544.481 0 548.791 0C552.3 0 555.655 0.462788 558.857 1.38836C562.12 2.31394 564.983 3.59946 567.446 5.24493C567.815 5.45061 568 5.70771 568 6.01624C568 6.22192 567.877 6.47902 567.631 6.78755L562.274 11.9553C561.966 12.2124 561.658 12.341 561.351 12.341C561.104 12.341 560.827 12.2639 560.519 12.1096C556.702 9.74425 552.454 8.56157 547.775 8.56157C543.773 8.56157 540.448 9.58999 537.801 11.6468C535.153 13.6522 533.46 16.429 532.721 19.977L529.304 36.7145C529.119 37.6401 529.027 38.5142 529.027 39.3369C529.027 42.1137 529.981 44.3248 531.89 45.9702C533.799 47.6157 536.446 48.4384 539.832 48.4384C542.234 48.4384 544.819 48.0528 547.59 47.2815C550.422 46.4587 552.946 45.3532 555.163 43.9648C555.471 43.8106 555.748 43.7334 555.994 43.7334C556.425 43.7334 556.733 43.9391 556.918 44.3505L560.519 50.0582C560.643 50.2639 560.704 50.4953 560.704 50.7524C560.704 51.0609 560.55 51.2923 560.242 51.4465Z" fill="#FFF3F3" />
  <path d="M454.323 56.0746C453.892 56.0746 453.553 55.9718 453.307 55.7661C453.122 55.5604 453.061 55.2776 453.122 54.9176L464.297 1.85134C464.42 1.18287 464.882 0.848633 465.682 0.848633H474.087C474.518 0.848633 474.856 0.951475 475.102 1.15716C475.349 1.36284 475.41 1.64566 475.287 2.0056L471.408 20.44C470.793 23.4224 469.931 26.9704 468.822 31.0841C467.776 35.1463 466.729 38.7972 465.682 42.0367H465.96C470.823 35.5063 474.764 30.5184 477.781 27.0733L500.13 1.54281C500.499 1.08003 501.023 0.848633 501.7 0.848633H510.566C510.997 0.848633 511.305 0.977184 511.489 1.23429C511.736 1.43997 511.828 1.69708 511.766 2.0056L500.592 55.0719C500.469 55.7404 500.007 56.0746 499.206 56.0746H490.802C490.371 56.0746 490.033 55.9718 489.786 55.7661C489.54 55.5604 489.479 55.2776 489.602 54.9176L492.834 39.5685C493.573 36.0205 494.527 32.0354 495.697 27.6132C496.928 23.1396 498.098 19.1802 499.206 15.735H498.929C497.144 18.4088 495.02 21.3398 492.557 24.5279C490.094 27.716 487.724 30.5699 485.446 33.0895L464.944 55.3804C464.636 55.8432 464.112 56.0746 463.374 56.0746H454.323Z" fill="#FFF3F3" />
  <path d="M396.128 56.0741C395.697 56.0741 395.358 55.9713 395.112 55.7656C394.927 55.5599 394.866 55.2771 394.927 54.9172L406.194 1.928C406.379 1.25953 406.871 0.925293 407.672 0.925293H430.206C435.624 0.925293 439.749 2.08226 442.581 4.3962C445.475 6.65872 446.922 9.64112 446.922 13.3434C446.922 14.5261 446.799 15.6059 446.552 16.5829C446.121 18.8969 445.105 20.9537 443.505 22.7534C441.966 24.5017 440.057 25.8387 437.779 26.7643C442.335 28.7183 444.613 31.9835 444.613 36.5599C444.613 37.177 444.49 38.2568 444.244 39.7994C443.197 45.1472 440.457 49.2095 436.024 51.9862C431.591 54.7115 425.773 56.0741 418.569 56.0741H396.128ZM424.849 23.1391C427.989 23.1391 430.575 22.3164 432.607 20.6709C434.7 19.0254 435.747 16.8657 435.747 14.1919C435.747 10.8495 433.13 9.17834 427.897 9.17834H415.799L412.751 23.1391H424.849ZM420.139 47.744C423.464 47.744 426.327 46.9984 428.728 45.5072C431.129 43.9645 432.607 41.7277 433.161 38.7967C433.284 38.0768 433.346 37.5369 433.346 37.177C433.346 35.2744 432.576 33.8089 431.037 32.7805C429.559 31.7007 427.281 31.1607 424.203 31.1607H411.089L407.579 47.744H420.139Z" fill="#FFF3F3" />
  <path d="M371.327 0.925293C375.391 0.925293 378.962 1.59376 382.04 2.93071C385.119 4.26765 387.52 6.14451 389.244 8.56128C390.968 10.9781 391.83 13.7548 391.83 16.8915C391.83 18.0227 391.676 19.3082 391.368 20.748C390.198 26.3015 387.366 30.5951 382.871 33.6289C378.438 36.6114 372.466 38.1026 364.955 38.1026H353.134L349.532 55.0714C349.409 55.7399 348.947 56.0741 348.147 56.0741H339.65C339.219 56.0741 338.881 55.9713 338.634 55.7656C338.388 55.5599 338.327 55.2771 338.45 54.9172L349.624 1.928C349.686 1.61948 349.84 1.38808 350.086 1.23382C350.332 1.02813 350.64 0.925293 351.01 0.925293H371.327ZM365.879 29.7724C374.067 29.7724 378.869 26.5072 380.286 19.9767C380.47 19.1026 380.563 18.2798 380.563 17.5085C380.563 14.7832 379.639 12.7264 377.792 11.338C375.945 9.94965 373.328 9.25547 369.942 9.25547H359.229L354.889 29.7724H365.879Z" fill="#FFF3F3" />
  <path d="M334.888 8.32989C334.765 8.99836 334.303 9.3326 333.502 9.3326H306.535L303.488 23.8333H327.961C328.392 23.8333 328.7 23.9361 328.885 24.1418C329.131 24.3475 329.223 24.6303 329.162 24.9902L327.777 31.1607C327.653 31.8292 327.192 32.1635 326.391 32.1635H301.733L298.501 47.5897H326.391C326.822 47.5897 327.13 47.7182 327.315 47.9754C327.561 48.181 327.653 48.4638 327.592 48.8238L326.299 55.0714C326.176 55.7399 325.714 56.0741 324.914 56.0741H286.957C286.526 56.0741 286.187 55.9713 285.941 55.7656C285.756 55.5599 285.694 55.2771 285.756 54.9172L297.023 1.928C297.146 1.25953 297.608 0.925293 298.408 0.925293H335.072C335.996 0.925293 336.396 1.31095 336.273 2.08226L334.888 8.32989Z" fill="#FFF3F3" />
  <path d="M276.853 51.4465C269.957 55.1488 262.415 57 254.226 57C250.409 57 246.961 56.3829 243.883 55.1488C240.866 53.8633 238.495 51.9865 236.772 49.5183C235.048 47.0501 234.186 44.0934 234.186 40.6482C234.186 38.8999 234.34 37.3572 234.647 36.0203L238.249 18.7429C239.111 14.5778 240.866 11.1069 243.513 8.33018C246.161 5.50203 249.393 3.41949 253.21 2.08254C257.028 0.694182 261.091 0 265.401 0C268.91 0 272.266 0.462788 275.467 1.38836C278.73 2.31394 281.593 3.59946 284.056 5.24493C284.426 5.45061 284.61 5.70771 284.61 6.01624C284.61 6.22192 284.487 6.47902 284.241 6.78755L278.884 11.9553C278.577 12.2124 278.269 12.341 277.961 12.341C277.715 12.341 277.438 12.2639 277.13 12.1096C273.312 9.74425 269.064 8.56157 264.385 8.56157C260.383 8.56157 257.058 9.58999 254.411 11.6468C251.763 13.6522 250.07 16.429 249.332 19.977L245.914 36.7145C245.73 37.6401 245.637 38.5142 245.637 39.3369C245.637 42.1137 246.592 44.3248 248.5 45.9702C250.409 47.6157 253.056 48.4384 256.443 48.4384C258.844 48.4384 261.43 48.0528 264.2 47.2815C267.032 46.4587 269.557 45.3532 271.773 43.9648C272.081 43.8106 272.358 43.7334 272.604 43.7334C273.035 43.7334 273.343 43.9391 273.528 44.3505L277.13 50.0582C277.253 50.2639 277.314 50.4953 277.314 50.7524C277.314 51.0609 277.16 51.2923 276.853 51.4465Z" fill="#FFF3F3" />
  <path d="M223.258 36.7145C221.965 43.1935 218.733 48.207 213.561 51.7551C208.451 55.2517 201.894 57 193.89 57C187.179 57 182.008 55.4317 178.375 52.295C174.742 49.1583 172.926 44.9161 172.926 39.5683C172.926 37.9743 173.111 36.2517 173.48 34.4005L176.528 19.977C177.821 13.7037 180.992 8.81867 186.04 5.32206C191.15 1.77402 197.615 0 205.434 0C212.33 0 217.625 1.56834 221.319 4.70501C225.013 7.84168 226.86 12.0068 226.86 17.2003C226.86 18.7429 226.675 20.3627 226.306 22.0595L223.258 36.7145ZM184.655 35.4032C184.409 36.3802 184.286 37.4344 184.286 38.5656C184.286 41.548 185.24 43.9391 187.148 45.7388C189.119 47.5386 191.797 48.4384 195.183 48.4384C199.739 48.4384 203.464 47.3586 206.358 45.1989C209.313 43.0392 211.191 40.0568 211.991 36.2517L215.131 21.2111C215.316 20.1313 215.408 19.1286 215.408 18.203C215.408 15.272 214.454 12.9323 212.545 11.184C210.637 9.43572 207.835 8.56157 204.141 8.56157C199.585 8.56157 195.922 9.6157 193.151 11.724C190.381 13.8322 188.565 16.866 187.703 20.8254L184.655 35.4032Z" fill="#FFF3F3" />
  <path d="M173.105 0.925293C173.536 0.925293 173.844 1.02813 174.029 1.23382C174.275 1.4395 174.367 1.72232 174.306 2.08226L172.92 8.32989C172.859 8.63842 172.705 8.89552 172.459 9.10121C172.212 9.25547 171.905 9.3326 171.535 9.3326H153.988L144.199 55.0714C144.076 55.7399 143.614 56.0741 142.813 56.0741H134.225C133.794 56.0741 133.486 55.9713 133.301 55.7656C133.116 55.5599 133.055 55.2771 133.116 54.9172L142.813 9.3326H125.543C125.113 9.3326 124.774 9.22976 124.528 9.02407C124.343 8.81839 124.281 8.53558 124.343 8.17563L125.728 1.928C125.851 1.25953 126.313 0.925293 127.113 0.925293H173.105Z" fill="#FFF3F3" />
  <path d="M65.1873 56.0741C64.7563 56.0741 64.4177 55.9713 64.1714 55.7656C63.9867 55.5599 63.9251 55.2771 63.9867 54.9172L75.2538 1.928C75.4385 1.25953 75.931 0.925293 76.7314 0.925293H99.2655C104.684 0.925293 108.809 2.08226 111.641 4.3962C114.534 6.65872 115.981 9.64112 115.981 13.3434C115.981 14.5261 115.858 15.6059 115.612 16.5829C115.181 18.8969 114.165 20.9537 112.564 22.7534C111.025 24.5017 109.116 25.8387 106.838 26.7643C111.394 28.7183 113.673 31.9835 113.673 36.5599C113.673 37.177 113.549 38.2568 113.303 39.7994C112.256 45.1472 109.517 49.2095 105.084 51.9862C100.651 54.7115 94.8325 56.0741 87.629 56.0741H65.1873ZM93.909 23.1391C97.049 23.1391 99.6349 22.3164 101.667 20.6709C103.76 19.0254 104.807 16.8657 104.807 14.1919C104.807 10.8495 102.19 9.17834 96.9567 9.17834H84.8584L81.8108 23.1391H93.909ZM89.199 47.744C92.5237 47.744 95.3867 46.9984 97.7878 45.5072C100.189 43.9645 101.667 41.7277 102.221 38.7967C102.344 38.0768 102.405 37.5369 102.405 37.177C102.405 35.2744 101.636 33.8089 100.097 32.7805C98.619 31.7007 96.341 31.1607 93.2626 31.1607H80.1485L76.639 47.744H89.199Z" fill="#FFF3F3" />
  <path d="M45.4838 56.0741C44.6218 56.0741 44.16 55.7399 44.0985 55.0714L42.2514 43.656H18.8861L12.2367 55.2257C11.8673 55.7913 11.3132 56.0741 10.5744 56.0741H1.06206C0.569509 56.0741 0.261666 55.9713 0.138529 55.7656C-0.0461764 55.5085 -0.0461764 55.2 0.138529 54.84L32.0002 1.69661C32.3697 1.1824 32.893 0.925293 33.5702 0.925293H44.0061C44.8065 0.925293 45.299 1.25953 45.4838 1.928L55.3655 54.9172V55.0714C55.3655 55.7399 54.9345 56.0741 54.0726 56.0741H45.4838ZM37.2644 11.1066H36.8949L23.5961 35.2487H40.8661L37.2644 11.1066Z" fill="#FFF3F3" />
</svg>