<svg width="22" height="23" viewBox="0 0 22 23" fill="none" xmlns="http://www.w3.org/2000/svg">
<path fill-rule="evenodd" clip-rule="evenodd" d="M22 11.0387C22 17.1138 17.0751 22.0387 11 22.0387C8.99162 22.0387 7.10895 21.5005 5.48837 20.5604L5.49995 20.5719L0.733286 21.6719L1.79635 17.0653C0.660594 15.3344 0 13.2637 0 11.0387C0 4.96356 4.92487 0.0386963 11 0.0386963C17.0751 0.0386963 22 4.96356 22 11.0387ZM5.50024 5.17192C4.88913 5.66081 3.95031 7.03877 4.40024 8.83859C5.13354 11.7719 8.43355 14.7053 9.53355 15.4386C10.6335 16.1719 12.4669 17.2719 14.6669 17.2719C16.4269 17.2719 17.3558 16.0497 17.6002 15.4386C17.7224 15.1941 17.8935 14.6319 17.6002 14.3386C17.3069 14.0453 15.0336 12.872 14.6669 12.872C14.6122 12.872 14.5656 12.8638 14.5211 12.856C14.2676 12.8115 14.0814 12.7789 12.8335 14.3386C11.6113 13.9719 8.87355 12.6519 7.70021 10.3053C7.76452 10.2409 7.85139 10.1654 7.94894 10.0805C8.40761 9.68135 9.10257 9.07661 8.80021 8.47192C8.40187 7.67524 8.15653 7.07638 7.9324 6.52927C7.74392 6.06918 7.57043 5.64569 7.33355 5.17196C6.96689 4.43866 5.86689 4.80522 5.50024 5.17192Z" fill="#B9B9B9"/>
</svg>
